<svg width="365" height="365" viewBox="0 0 365 365" fill="none" xmlns="http://www.w3.org/2000/svg">
<rect width="365" height="365" fill="#2B2B2B"/>
<path d="M207.655 222.06C146.537 248.507 98.7537 193.168 116.978 138.051C128.542 103.076 172.539 82.0445 209.655 88.0451C234.853 92.1191 262.549 104.714 284.774 136.717C307.228 169.051 307.24 208.728 302.332 230.061C296.553 255.175 275.44 299.624 210.099 319.849" stroke="#B3B3B3" stroke-width="16.0018"/>
<circle cx="205.21" cy="222.06" r="11.7791" fill="#B3B3B3"/>
<ellipse cx="116.756" cy="136.717" rx="13.1126" ry="12.6681" fill="#B3B3B3"/>
<ellipse cx="210.099" cy="88.2674" rx="14.0015" ry="13.5571" fill="#B3B3B3"/>
<ellipse cx="286.552" cy="138.495" rx="14.0015" ry="13.5571" fill="#B3B3B3"/>
<ellipse cx="301.887" cy="231.172" rx="15.1128" ry="14.6683" fill="#B3B3B3"/>
<ellipse cx="208.988" cy="319.626" rx="15.1128" ry="14.6683" fill="#B3B3B3"/>
<circle cx="184.096" cy="181.389" r="20.8912" fill="white"/>
<path d="M159.205 142.94C220.323 116.493 268.106 171.832 249.882 226.949C238.318 261.924 194.32 282.956 157.205 276.955C132.006 272.881 104.31 260.286 82.0854 228.283C59.6316 195.949 59.6193 156.272 64.5276 134.939C70.306 109.825 91.4195 65.376 156.76 45.1516" stroke="white" stroke-width="16.0018"/>
<circle cx="161.649" cy="142.94" r="11.7791" transform="rotate(180 161.649 142.94)" fill="white"/>
<ellipse cx="250.104" cy="228.283" rx="13.1126" ry="12.6681" transform="rotate(180 250.104 228.283)" fill="white"/>
<ellipse cx="156.76" cy="276.733" rx="14.0015" ry="13.5571" transform="rotate(180 156.76 276.733)" fill="white"/>
<ellipse cx="80.3072" cy="226.505" rx="14.0015" ry="13.5571" transform="rotate(180 80.3072 226.505)" fill="white"/>
<ellipse cx="64.9722" cy="133.828" rx="15.1128" ry="14.6683" transform="rotate(180 64.9722 133.828)" fill="white"/>
<ellipse cx="157.871" cy="45.3737" rx="15.1128" ry="14.6683" transform="rotate(180 157.871 45.3737)" fill="white"/>
</svg>
