<svg width="365" height="365" viewBox="0 0 365 365" fill="none" xmlns="http://www.w3.org/2000/svg">
<rect width="365" height="365" fill="white"/>
<path d="M206.795 221.355C145.677 247.802 97.8942 192.462 116.118 137.345C127.682 102.371 171.68 81.339 208.795 87.3397C233.993 91.4137 261.69 104.008 283.914 136.012C306.368 168.345 306.381 208.023 301.472 229.355C295.694 254.469 274.58 298.919 209.24 319.143" stroke="#B3B3B3" stroke-width="16.0018"/>
<circle cx="204.35" cy="221.355" r="11.7791" fill="#B3B3B3"/>
<ellipse cx="115.896" cy="136.012" rx="13.1126" ry="12.6681" fill="#B3B3B3"/>
<ellipse cx="209.24" cy="87.5619" rx="14.0015" ry="13.5571" fill="#B3B3B3"/>
<ellipse cx="285.693" cy="137.79" rx="14.0015" ry="13.5571" fill="#B3B3B3"/>
<ellipse cx="301.028" cy="230.467" rx="15.1128" ry="14.6683" fill="#B3B3B3"/>
<ellipse cx="208.129" cy="318.921" rx="15.1128" ry="14.6683" fill="#B3B3B3"/>
<circle cx="183.237" cy="180.683" r="20.8912" fill="#2B2B2B"/>
<path d="M158.345 142.235C219.463 115.787 267.246 171.127 249.022 226.244C237.458 261.218 193.461 282.25 156.345 276.25C131.147 272.176 103.451 259.581 81.2259 227.577C58.7721 195.244 58.7598 155.566 63.6681 134.234C69.4465 109.12 90.56 64.6706 155.901 44.4461" stroke="#2B2B2B" stroke-width="16.0018"/>
<circle cx="160.79" cy="142.235" r="11.5568" transform="rotate(180 160.79 142.235)" fill="#2B2B2B" stroke="#2B2B2B" stroke-width="0.444493"/>
<path d="M249.245 240.023C242.118 240.023 236.354 234.444 236.354 227.578C236.354 220.711 242.118 215.131 249.245 215.131C256.371 215.131 262.134 220.711 262.134 227.578C262.134 234.444 256.371 240.023 249.245 240.023Z" fill="#2B2B2B" stroke="#2B2B2B" stroke-width="0.444493"/>
<path d="M155.9 289.362C148.284 289.361 142.121 283.385 142.121 276.028C142.121 268.67 148.283 262.693 155.9 262.693C163.517 262.693 169.679 268.67 169.679 276.028C169.679 283.385 163.517 289.362 155.9 289.362Z" fill="#2B2B2B" stroke="#2B2B2B" stroke-width="0.444493"/>
<path d="M79.4473 239.134C71.8307 239.134 65.6682 233.158 65.668 225.8C65.668 218.442 71.8305 212.465 79.4473 212.465C87.0642 212.465 93.2266 218.442 93.2266 225.8C93.2263 233.158 87.064 239.134 79.4473 239.134Z" fill="#2B2B2B" stroke="#2B2B2B" stroke-width="0.444493"/>
<path d="M64.1132 147.568C55.8832 147.568 49.2227 141.095 49.2225 133.123C49.2225 125.151 55.883 118.677 64.1132 118.677C72.3431 118.677 79.0028 125.151 79.0028 133.123C79.0026 141.095 72.3429 147.568 64.1132 147.568Z" fill="#2B2B2B" stroke="#2B2B2B" stroke-width="0.444493"/>
<path d="M157.012 59.114C148.782 59.114 142.122 52.6407 142.122 44.6687C142.122 36.6966 148.782 30.2224 157.012 30.2224C165.242 30.2227 171.902 36.6967 171.902 44.6687C171.902 52.6405 165.242 59.1138 157.012 59.114Z" fill="#2B2B2B" stroke="#2B2B2B" stroke-width="0.444493"/>
</svg>
